PathFileType	4	(X/Y/Z)	G:\Shared drives\HPL_Drive\Pi-Spi Study\20230118_AMCsubject1\Trimmed_left_horiz_add01_rotated.trc
DataRate	CameraRate	NumFrames	NumMarkers	Units	OrigDataRate	OrigDataStartFrame	OrigNumFrames
200.00	200.00	       7	35	mm	200.00	26	       200
Frame#	Time	C7			Sternum			r_AMC1			r_AMC2			r_AMC3			l_AMC1			l_AMC2			l_AMC3			PX			T8			r_humerous			r_elbow_medial			r_elbow_lateral			r_forearm			r_wrist_radius			r_wrist_ulna			r_MCP_1			r_MCP_3			l_humerous			l_elbow_medial			l_elbow_lateral			l_forearm			l_wrist_radius			l_wrist_ulna			l_MCP_1			l_MCP_3			r_ASIS			r_PSIS			l_ASIS			l_PSIS			r_IC			l_IC			TS			AI			AA			
		X1	Y1	Z1	X2	Y2	Z2	X3	Y3	Z3	X4	Y4	Z4	X5	Y5	Z5	X6	Y6	Z6	X7	Y7	Z7	X8	Y8	Z8	X9	Y9	Z9	X10	Y10	Z10	X11	Y11	Z11	X12	Y12	Z12	X13	Y13	Z13	X14	Y14	Z14	X15	Y15	Z15	X16	Y16	Z16	X17	Y17	Z17	X18	Y18	Z18	X19	Y19	Z19	X20	Y20	Z20	X21	Y21	Z21	X22	Y22	Z22	X23	Y23	Z23	X24	Y24	Z24	X25	Y25	Z25	X26	Y26	Z26	X27	Y27	Z27	X28	Y28	Z28	X29	Y29	Z29	X30	Y30	Z30	X31	Y31	Z31	X32	Y32	Z32	X33	Y33	Z33	X34	Y34	Z34	X35	Y35	Z35	

26	0.125	178.1841	1367.8981	-254.3241	313.6456	1320.573	-228.0261	177.8047	1323.8318	-85.2791	211.4685	1330.6531	-49.299	229.5811	1365.5294	-72.5673	233.4549	1341.2306	-408.3039	278.7107	1363.6566	-418.1272	267.6258	1387.9873	-371.3834	391.5611	1131.4293	-215.4942	159.3591	1189.2256	-252.1151	296.4653	1148.1318	-28.7516	227.4459	1005.6836	-51.7743	247.7166	1015.8955	11.2477	305.1028	861.2205	28.0542	353.6656	798.8649	4.8044	308.0743	792.3632	28.1438	377.4264	716.6107	14.8521	330.5448	712.4197	34.3772	417.9283	1330.7281	-297.737	528.9247	1240.7194	-264.0463	555.1049	1283.6946	-278.5663	672.7398	1313.0138	-169.53	710.4178	1330.9402	-104.1135	720.7875	1289.2413	-109.6348	770.0258	1343.188	-55.1151	776.2264	1299.7819	-54.7586	385.4836	907.2971	-89.5006	190.9053	928.5744	-156.3627	365.3198	894.7644	-346.0926	183.0051	922.4592	-259.6636	306.3853	971.8649	-55.6172	275.0075	940.058	-378.4497	144.7425	1295.9379	-387.4834	168.2202	1199.4359	-403.7837	242.4684	1339.8309	-475.4273
27	0.13	178.1889	1367.8922	-254.3219	313.5986	1320.6616	-227.9194	177.7966	1323.8385	-85.299	211.4748	1330.6742	-49.2876	229.5691	1365.5393	-72.5614	233.4607	1341.2258	-408.2962	278.7495	1363.6314	-418.2358	267.6452	1387.9897	-371.3866	391.5423	1131.4474	-215.445	159.3504	1189.2201	-252.1067	296.4413	1148.1388	-28.7092	227.4583	1005.681	-51.7644	247.7284	1015.9282	11.2808	305.118	861.1967	28.0568	353.7324	798.903	4.8205	308.0703	792.4164	28.1789	377.5017	716.5288	14.8287	330.5346	712.51	34.3984	417.9687	1330.7028	-297.7863	528.9481	1240.7007	-264.0499	555.1541	1283.6211	-278.5719	672.7672	1312.9637	-169.4925	710.3055	1330.6968	-104.0863	720.8029	1289.2339	-109.6308	770.0485	1343.0955	-55.0578	776.2053	1299.7961	-54.7772	385.5027	907.32	-89.4458	190.9129	928.559	-156.3555	365.3528	894.7682	-346.084	183.0014	922.4783	-259.6604	306.4171	971.8121	-55.6671	275.0393	940.0728	-378.4967	144.775	1295.9605	-387.5069	168.262	1199.4255	-403.8023	242.5058	1339.8278	-475.4302
28	0.135	178.1998	1367.897	-254.3275	313.5946	1320.6461	-227.9494	177.8013	1323.8395	-85.3	211.4347	1330.72	-49.2964	229.5433	1365.5795	-72.5899	233.4758	1341.2211	-408.3187	278.7445	1363.6177	-418.2089	267.6328	1387.9781	-371.3851	391.5662	1131.5011	-215.4206	159.3569	1189.2327	-252.0869	296.4513	1148.1803	-28.7565	227.4594	1005.6885	-51.7522	247.7809	1015.9198	11.2418	305.0921	861.2306	28.0706	353.7735	798.9402	4.7631	308.0987	792.4092	28.1903	377.4845	716.64	14.8291	330.6408	712.3926	34.3967	417.9556	1330.7347	-297.7893	528.9589	1240.7137	-264.0994	555.1469	1283.6627	-278.5655	672.7423	1312.9714	-169.5123	710.3669	1330.6516	-104.0481	720.8281	1289.1656	-109.623	770.0721	1343.0386	-55.0643	776.2686	1299.6356	-54.7971	385.4804	907.3063	-89.4586	190.7376	928.6858	-156.3602	365.3517	894.7737	-346.0641	183.0219	922.4554	-259.6619	306.407	971.9333	-55.6649	274.9893	940.1497	-378.4406	144.7805	1296.0116	-387.5063	168.2727	1199.4558	-403.7865	242.509	1339.8131	-475.4446
29	0.14	178.1994	1367.894	-254.3361	313.6337	1320.5575	-228.0234	177.7907	1323.827	-85.2766	211.4179	1330.7473	-49.2779	229.5759	1365.5101	-72.56	233.4811	1341.2285	-408.3064	278.7659	1363.6477	-418.2629	267.658	1387.9663	-371.4061	391.6262	1131.5326	-215.4072	159.3754	1189.2219	-252.109	296.4822	1148.1307	-28.7358	227.4629	1005.7045	-51.7345	247.7797	1015.9589	11.2665	305.059	861.2826	28.0795	353.8279	798.9155	4.8174	308.1712	792.389	28.1583	377.5137	716.6169	14.8436	330.673	712.4179	34.4416	418.0241	1330.6592	-297.8063	529.0098	1240.6603	-264.1337	555.1734	1283.6554	-278.598	672.7657	1312.9493	-169.4685	710.3399	1330.6052	-104.0492	720.8584	1289.1281	-109.6425	770.0958	1342.9858	-55.0459	776.2588	1299.6139	-54.7747	385.468	907.3157	-89.4344	190.9747	928.5677	-156.3533	365.3884	894.7495	-346.0347	183.0278	922.4622	-259.6551	306.4556	971.8223	-55.6467	274.971	940.1401	-378.4154	144.7725	1295.958	-387.5377	168.2747	1199.4736	-403.7896	242.4847	1339.8337	-475.4452
30	0.145	178.2038	1367.8777	-254.3393	313.5958	1320.5874	-227.9967	177.7717	1323.8641	-85.2882	211.3959	1330.7665	-49.2963	229.5237	1365.5863	-72.5538	233.4937	1341.2206	-408.3095	278.7744	1363.5927	-418.243	267.671	1387.9729	-371.4273	391.6269	1131.5889	-215.3512	159.3646	1189.2144	-252.1061	296.4624	1148.1516	-28.718	227.4505	1005.7111	-51.7246	247.723	1015.9991	11.3177	305.1448	861.2447	28.0996	353.7389	798.9325	4.8388	308.1284	792.4003	28.1989	377.5136	716.666	14.9311	330.6899	712.4797	34.441	418.0374	1330.6766	-297.8086	528.9936	1240.6517	-264.1709	555.1722	1283.6811	-278.6336	672.7242	1312.9354	-169.4881	710.3112	1330.5928	-104.0394	720.8657	1289.0922	-109.6479	769.7973	1342.5743	-54.7877	776.2663	1299.5532	-54.7708	385.493	907.279	-89.4415	190.9802	928.5532	-156.3425	365.3699	894.7735	-346.0381	183.0485	922.4518	-259.6463	306.4791	971.8549	-55.6576	275.0246	940.1392	-378.4121	144.8118	1296.0056	-387.5434	168.2889	1199.4846	-403.7928	242.537	1339.8616	-475.4397
31	0.15	178.2007	1367.8784	-254.3496	313.5981	1320.7024	-227.956	177.7822	1323.8423	-85.3063	211.4441	1330.7058	-49.3037	229.5129	1365.6287	-72.5658	233.5169	1341.2162	-408.3392	278.7186	1363.6811	-418.1712	267.7109	1387.9941	-371.4083	391.6678	1131.6306	-215.3436	159.3799	1189.2206	-252.1099	296.4057	1148.1947	-28.6681	227.4611	1005.7017	-51.7365	247.6801	1015.9341	11.3571	305.1355	861.2636	28.1079	353.7694	799.0115	4.8844	308.1482	792.4191	28.2217	377.5428	716.6652	14.9033	330.6693	712.5076	34.4886	418.0797	1330.6508	-297.8043	529.0493	1240.6404	-264.1865	555.2263	1283.6291	-278.6317	672.7853	1312.8679	-169.5263	710.3844	1330.5088	-104.0637	720.8451	1289.1239	-109.641	769.8367	1342.4518	-54.765	776.2526	1299.5267	-54.764	385.5167	907.2604	-89.4018	190.988	928.5642	-156.3053	365.3797	894.7658	-346.0074	183.0663	922.4413	-259.6491	306.4676	971.8883	-55.6572	275.0864	940.1187	-378.398	144.793	1295.994	-387.5563	168.2785	1199.5067	-403.7983	242.534	1339.8743	-475.4558
32	0.155	178.2073	1367.8745	-254.3334	313.619	1320.6349	-228.0069	177.79	1323.8555	-85.2946	211.4349	1330.7175	-49.3376	229.5499	1365.5482	-72.5799	233.5197	1341.2267	-408.3236	278.7545	1363.6813	-418.2359	267.7282	1387.9797	-371.4132	391.687	1131.6594	-215.3321	159.3787	1189.2098	-252.084	296.4456	1148.1309	-28.6549	227.4326	1005.7246	-51.7118	247.6992	1016.0019	11.3061	305.0906	861.3081	28.1253	353.7684	798.9653	4.8409	308.1008	792.4739	28.2278	377.5744	716.6804	14.9031	330.7048	712.447	34.4945	418.0645	1330.7033	-297.8248	529.0662	1240.61	-264.2412	555.2294	1283.6338	-278.6249	672.7787	1312.8573	-169.5044	710.39	1330.4688	-104.0488	720.9005	1289.0151	-109.6387	769.8449	1342.4054	-54.7549	776.277	1299.4419	-54.7842	385.523	907.262	-89.4134	190.9921	928.5566	-156.2985	365.4661	894.7911	-345.9837	183.0663	922.4368	-259.6363	306.5174	971.8494	-55.6583	275.0763	940.1125	-378.3893	144.8409	1296.0292	-387.5044	168.2927	1199.5012	-403.8019	242.5404	1339.9415	-475.4255
